<svg xmlns="http://www.w3.org/2000/svg" width="280" height="48" viewBox="0 0 280 48">
  <rect x="0" y="40" width="10" height="8" rx="5" fill="#1DB954" opacity="0.9"/>
  <rect x="18" y="18" width="10" height="30" rx="5" fill="#1DB954" opacity="0.9"/>
  <rect x="36" y="0" width="10" height="48" rx="5" fill="#1DB954" opacity="0.9"/>
  <rect x="54" y="32" width="10" height="16" rx="5" fill="#1DB954" opacity="0.9"/>
  <rect x="72" y="8" width="10" height="40" rx="5" fill="#1DB954" opacity="0.9"/>
  <rect x="90" y="26" width="10" height="22" rx="5" fill="#1DB954" opacity="0.9"/>
  <rect x="108" y="0" width="10" height="48" rx="5" fill="#1DB954" opacity="0.9"/>
  <rect x="126" y="36" width="10" height="12" rx="5" fill="#1DB954" opacity="0.9"/>
  <rect x="144" y="12" width="10" height="36" rx="5" fill="#1DB954" opacity="0.9"/>
  <rect x="162" y="4" width="10" height="44" rx="5" fill="#1DB954" opacity="0.9"/>
  <rect x="180" y="28" width="10" height="20" rx="5" fill="#1DB954" opacity="0.9"/>
  <rect x="198" y="0" width="10" height="48" rx="5" fill="#1DB954" opacity="0.9"/>
  <rect x="216" y="34" width="10" height="14" rx="5" fill="#1DB954" opacity="0.9"/>
  <rect x="234" y="10" width="10" height="38" rx="5" fill="#1DB954" opacity="0.9"/>
  <rect x="252" y="22" width="10" height="26" rx="5" fill="#1DB954" opacity="0.9"/>
  <rect x="270" y="40" width="10" height="8" rx="5" fill="#1DB954" opacity="0.9"/>
</svg>
